<svg width="320" height="81" viewBox="0 0 320 81" fill="none" xmlns="http://www.w3.org/2000/svg">
<path d="M222.118 12.4433V25.7805C222.118 29.6651 226.259 31.9958 229.624 30.0535L241.788 23.0612C244.894 21.2484 244.894 16.8459 241.788 15.1626L229.624 8.17029C226.259 6.228 222.118 8.68824 222.118 12.4433Z" fill="#BDBDBD"/>
<path d="M186.241 13.2628C187.582 9.6378 191.07 7.48962 194.557 7.48962C198.178 7.48962 201.531 9.6378 202.872 13.2628L221.515 61.0467C223.259 65.7458 221.113 70.982 216.419 72.7274C211.859 74.6071 206.628 72.3246 204.75 67.6255L194.557 41.3104L184.229 67.6255C182.888 71.2505 179.401 73.3987 175.914 73.3987C172.292 73.3987 168.939 71.2505 167.598 67.6255L148.955 19.8286C147.212 15.1295 149.358 9.89335 154.052 8.14796C158.612 6.2683 163.843 8.55074 165.72 13.2499L175.914 39.565L186.241 13.2628Z" fill="#BDBDBD"/>
<path d="M111.471 73.3987C129.696 73.3987 144.471 58.6444 144.471 40.4442C144.471 22.2439 129.696 7.48962 111.471 7.48962C93.2452 7.48962 78.4706 22.2439 78.4706 40.4442C78.4706 58.6444 93.2452 73.3987 111.471 73.3987Z" fill="#BDBDBD"/>
<path d="M237.647 73.3987C241.221 73.3987 244.118 70.5057 244.118 66.937C244.118 63.3684 241.221 60.4754 237.647 60.4754C234.073 60.4754 231.177 63.3684 231.177 66.937C231.177 70.5057 234.073 73.3987 237.647 73.3987Z" fill="#BDBDBD"/>
<path d="M294.453 73.3369C292.423 73.3369 290.529 71.9962 289.852 70.1191L285.793 57.2479L283.628 69.851C283.222 72.1302 281.057 73.7392 278.757 73.3369C276.457 72.9347 274.833 70.7895 275.239 68.5102L279.569 44.913C280.245 42.2315 283.07 40.7832 285.793 41.293C287.225 41.5611 288.499 42.7678 289.176 44.1086L294.453 58.3205H294.588L299.865 44.1086C300.948 41.5611 304.06 40.3545 306.631 41.5611C307.984 42.2315 309.067 43.4382 309.472 44.913L313.938 68.5102C314.344 70.7895 312.72 72.9347 310.42 73.3369C308.119 73.7392 305.954 72.1302 305.548 69.851L303.383 57.382L299.324 70.2532C298.512 72.1302 296.618 73.3369 294.453 73.3369Z" fill="#BDBDBD"/>
<path d="M269.437 49.2094C271.733 49.2094 273.488 47.4563 273.488 45.1639C273.488 42.8714 271.733 41.1183 269.437 41.1183H257.554C255.258 41.1183 253.233 43.0062 253.233 45.2987V69.4373C253.368 71.7298 255.393 73.6177 257.689 73.4828C259.85 73.348 261.605 71.5949 261.74 69.4373V61.3461H268.087C270.383 61.3461 272.138 59.5931 272.138 57.3006C272.138 55.0081 270.383 53.255 268.087 53.255H261.74V49.2094H269.437Z" fill="#BDBDBD"/>
<path d="M37.7059 47.552C41.6369 47.552 44.8236 44.3697 44.8236 40.4441C44.8236 36.5186 41.6369 33.3363 37.7059 33.3363C33.7749 33.3363 30.5883 36.5186 30.5883 40.4441C30.5883 44.3697 33.7749 47.552 37.7059 47.552Z" fill="#BDBDBD"/>
<path d="M60.3529 73.3987C65.3701 73.3987 69.4118 69.498 69.4118 64.6557V16.2327C69.4118 11.3904 65.3701 7.48962 60.3529 7.48962C55.3357 7.48962 51.2941 11.3904 51.2941 16.2327V64.6557C51.2941 69.498 55.3357 73.3987 60.3529 73.3987Z" fill="#BDBDBD"/>
<path d="M15.0588 73.3987C20.076 73.3987 24.1176 69.498 24.1176 64.6557V16.2327C24.1176 11.5249 20.076 7.48962 15.0588 7.48962C10.0416 7.48962 6 11.5249 6 16.2327V64.6557C6 69.498 10.0416 73.3987 15.0588 73.3987Z" fill="#BDBDBD"/>
</svg>
