<svg width="358" height="241" viewBox="0 0 358 241" fill="none" xmlns="http://www.w3.org/2000/svg">
<path d="M354.614 135.731H327.338C325.065 135.733 322.828 135.169 320.827 134.092C318.825 133.015 317.123 131.457 315.873 129.559L331.983 118.584L348.732 107.163L350.352 106.055C352.397 104.487 354.054 102.47 355.195 100.159C356.335 97.8483 356.929 95.3061 356.929 92.7292C356.929 92.232 356.929 91.749 356.851 91.266C356.745 90.4207 356.624 89.6322 356.489 88.9503C356.394 88.439 356.268 87.9337 356.112 87.4374V87.4374C355.878 86.7271 355.622 86.0949 355.345 85.4414C355.232 85.1857 355.118 84.93 354.997 84.6743C354.876 84.4186 354.749 84.1487 354.628 83.893C351.578 77.7394 346.538 72.7973 340.326 69.8687C334.114 66.9401 327.094 66.1969 320.406 67.7598C313.719 69.3227 307.756 73.1 303.485 78.4785C299.214 83.857 296.887 90.521 296.88 97.3888L296.944 121.113L296.873 121.163L283.448 130.716V97.3817L283.377 77.074L314.694 55.3741L314.652 55.3244C318.922 52.3086 322.344 48.2441 324.588 43.5222C326.833 38.8004 327.823 33.5803 327.465 28.3646C327.107 23.1489 325.412 18.1132 322.543 13.7425C319.675 9.37179 315.729 5.81324 311.087 3.4095C306.444 1.00577 301.261 -0.16218 296.036 0.0181166C290.811 0.198413 285.72 1.72089 281.254 4.43893C276.789 7.15697 273.098 10.979 270.537 15.5371C267.977 20.0952 266.633 25.2357 266.635 30.4637C266.635 30.6626 266.635 30.8472 266.635 31.0461V68.4722L248.707 81.0873C245.176 75.5118 239.929 71.2347 233.757 68.9C227.584 66.5653 220.82 66.2996 214.484 68.1428C208.147 69.9861 202.581 73.8384 198.623 79.1197C194.666 84.4009 192.532 90.825 192.543 97.4243L192.607 120.999L179.345 130.404V122.15V97.3817C179.407 93.3432 178.665 89.3328 177.162 85.5839C175.659 81.8349 173.426 78.4223 170.592 75.5446C167.758 72.6669 164.38 70.3817 160.654 68.8218C156.929 67.2619 152.93 66.4586 148.891 66.4586C144.852 66.4586 140.853 67.2619 137.128 68.8218C133.402 70.3817 130.024 72.6669 127.19 75.5446C124.356 78.4223 122.123 81.8349 120.62 85.5839C119.117 89.3328 118.375 93.3432 118.437 97.3817L118.373 122.15C118.414 123.982 118.089 125.803 117.417 127.508C116.745 129.212 115.739 130.765 114.458 132.075C113.178 133.385 111.648 134.427 109.959 135.137C108.271 135.848 106.457 136.214 104.625 136.214C102.792 136.214 100.979 135.848 99.2901 135.137C97.6014 134.427 96.0717 133.385 94.791 132.075C93.5102 130.765 92.5042 129.212 91.832 127.508C91.1598 125.803 90.835 123.982 90.8767 122.15L90.9335 69.5874C90.9335 69.1602 90.8493 68.7371 90.6859 68.3424C90.5224 67.9477 90.2827 67.5891 89.9807 67.287C89.6786 66.9849 89.3199 66.7453 88.9252 66.5818C88.5305 66.4183 88.1075 66.3342 87.6803 66.3342H75.3778C74.5958 66.3323 73.8393 66.6122 73.2469 67.1226L44.1882 92.2178V163.192L12.8779 184.891V184.941C8.60875 187.958 5.18811 192.023 2.94526 196.745C0.702411 201.467 -0.287125 206.686 0.0719202 211.901C0.430965 217.116 2.1265 222.151 4.99529 226.521C7.86408 230.891 11.8095 234.449 16.4518 236.852C21.0941 239.255 26.2768 240.423 31.5011 240.243C36.7255 240.062 41.8154 238.54 46.2809 235.823C50.7465 233.105 54.4373 229.284 56.998 224.726C59.5587 220.169 60.9031 215.029 60.9017 209.802C60.9017 209.603 60.9017 209.418 60.9017 209.227V100.102L74.1631 88.8651V122.15C74.2853 130.147 77.5476 137.774 83.2456 143.386C88.9436 148.998 96.6202 152.143 104.618 152.143C112.615 152.143 120.291 148.998 125.99 143.386C131.688 137.774 134.95 130.147 135.072 122.15L135.129 97.3817C135.129 93.7346 136.578 90.2368 139.157 87.6579C141.735 85.079 145.233 83.6302 148.88 83.6302C152.527 83.6302 156.025 85.079 158.604 87.6579C161.183 90.2368 162.632 93.7346 162.632 97.3817V122.15V149.291C162.632 150.154 162.975 150.981 163.585 151.591C164.195 152.201 165.022 152.544 165.885 152.544H175.574C176.591 152.541 177.582 152.226 178.415 151.642L197.181 138.288C201.203 144.735 207.489 149.445 214.805 151.493C222.121 153.542 229.939 152.782 236.724 149.362V163.22L205.414 184.92V184.97C201.145 187.986 197.724 192.051 195.481 196.773C193.238 201.495 192.249 206.715 192.608 211.93C192.967 217.145 194.662 222.18 197.531 226.55C200.4 230.919 204.345 234.477 208.988 236.88C213.63 239.284 218.813 240.451 224.037 240.271C229.261 240.091 234.351 238.568 238.817 235.851C243.282 233.133 246.973 229.312 249.534 224.755C252.094 220.198 253.439 215.058 253.438 209.83C253.438 209.631 253.438 209.447 253.438 209.255V122.725C253.438 122.534 253.438 122.342 253.438 122.15V98.2625L266.621 88.929L266.656 136.335V149.291C266.658 150.154 267.003 150.982 267.614 151.592C268.225 152.202 269.053 152.544 269.917 152.544H280.188C280.841 152.543 281.478 152.347 282.02 151.983L301.724 138.615C304.48 142.906 308.269 146.435 312.745 148.879C317.221 151.323 322.239 152.603 327.338 152.601L354.621 152.551C355.482 152.549 356.308 152.206 356.917 151.596C357.525 150.986 357.867 150.16 357.867 149.298V138.999C357.869 138.57 357.786 138.146 357.623 137.749C357.461 137.353 357.221 136.993 356.919 136.689C356.617 136.385 356.257 136.145 355.862 135.98C355.466 135.816 355.042 135.731 354.614 135.731V135.731ZM30.458 223.568C27.535 223.568 24.6881 222.636 22.3308 220.908C19.9735 219.179 18.2286 216.744 17.3495 213.957C16.4704 211.169 16.503 208.174 17.4424 205.406C18.3819 202.638 20.1793 200.242 22.5736 198.565L44.174 183.599V209.83H44.2166C44.2157 211.636 43.859 213.424 43.167 215.091C42.475 216.759 41.4611 218.274 40.1834 219.55C38.9057 220.825 37.3892 221.837 35.7205 222.526C34.0517 223.216 32.2635 223.57 30.458 223.568V223.568ZM223.008 135.902C221.202 135.902 219.414 135.546 217.745 134.855C216.077 134.164 214.561 133.151 213.284 131.874C212.007 130.597 210.994 129.081 210.303 127.413C209.612 125.744 209.256 123.956 209.256 122.15V97.3817C209.256 93.7346 210.705 90.2368 213.284 87.6579C215.863 85.079 219.361 83.6302 223.008 83.6302C226.655 83.6302 230.153 85.079 232.732 87.6579C235.311 90.2368 236.759 93.7346 236.759 97.3817L236.717 123.002C236.502 126.493 234.964 129.771 232.417 132.167C229.87 134.564 226.505 135.899 223.008 135.902V135.902ZM223.065 223.568C220.142 223.568 217.295 222.636 214.938 220.908C212.58 219.179 210.835 216.744 209.956 213.957C209.077 211.169 209.11 208.174 210.049 205.406C210.989 202.638 212.786 200.242 215.18 198.565L236.781 183.599V209.83H236.823C236.823 211.635 236.466 213.422 235.774 215.09C235.083 216.757 234.07 218.271 232.793 219.547C231.516 220.823 230 221.834 228.332 222.524C226.664 223.214 224.877 223.569 223.072 223.568H223.065ZM297.093 16.705C300.01 16.7114 302.85 17.6458 305.201 19.373C307.552 21.1003 309.292 23.5307 310.17 26.3127C311.048 29.0947 311.018 32.0839 310.085 34.8477C309.151 37.6116 307.362 40.0067 304.977 41.6865V41.6865L283.384 56.6811V30.4495H283.341C283.341 28.6439 283.697 26.8561 284.388 25.1881C285.08 23.5201 286.093 22.0046 287.37 20.7282C288.647 19.4518 290.163 18.4395 291.831 17.7492C293.499 17.0589 295.287 16.7041 297.093 16.705ZM326.002 83.5307C326.425 83.488 326.849 83.4666 327.274 83.4668C329.912 83.4665 332.495 84.2259 334.713 85.6543C336.931 87.0827 338.691 89.1197 339.782 91.5217V91.5217L325.647 101.303L324.717 101.949L313.572 109.663L313.537 97.2112C313.538 93.7881 314.816 90.4885 317.122 87.9582C319.427 85.428 322.594 83.8491 326.002 83.5307V83.5307Z" fill="#BDBDBD"/>
<path d="M60.8307 58.1657C60.8288 57.3022 60.4845 56.4748 59.8733 55.8649C59.2621 55.255 58.4339 54.9125 57.5704 54.9125H47.3207C46.4579 54.9125 45.6304 55.2552 45.0203 55.8653C44.4102 56.4754 44.0675 57.3029 44.0675 58.1657V84.9727L60.8307 70.8092V58.1657Z" fill="#BDBDBD"/>
</svg>
