<svg width="183" height="183" viewBox="0 0 183 183" fill="none" xmlns="http://www.w3.org/2000/svg">
<path d="M170.404 0H13.0364C6.0526 0 0 6.05343 0 13.0382V169.962C0 177.412 6.0526 183 13.0364 183H169.938C177.388 183 182.975 176.947 182.975 169.962V13.0382C183.44 6.05343 177.388 0 170.404 0ZM62.8539 141.557C62.3884 142.023 62.3884 142.023 61.9228 142.023H53.0767C52.6111 142.023 52.1455 142.023 51.6799 141.557C51.2143 141.557 51.2143 141.092 50.7487 140.626L40.0403 127.122V140.16C40.0403 140.626 40.0403 141.092 39.5747 141.092C39.1091 141.557 39.1091 141.557 38.6435 141.557H31.6598C31.1942 141.557 30.7286 141.557 30.7286 141.092C30.263 140.626 30.263 140.626 30.263 140.16V103.84C30.263 103.374 30.263 102.908 30.7286 102.908C31.1942 102.443 31.1942 102.443 31.6598 102.443H39.1091C39.5747 102.443 40.0403 102.443 40.0403 102.908C40.5059 103.374 40.5059 103.374 40.5059 103.84V116.412L50.2832 104.305C50.2832 104.305 50.7487 103.84 51.2143 103.374C51.6799 102.908 52.1455 102.908 52.6111 102.908H61.4572C61.9228 102.908 61.9228 102.908 62.3884 103.374C62.8539 103.84 62.8539 103.84 62.8539 104.305C62.8539 104.771 62.8539 104.771 62.8539 104.771L48.8864 121.534L63.7851 140.16V140.626C63.3195 141.092 63.3195 141.557 62.8539 141.557ZM63.7851 73.5725C63.7851 74.0382 63.7851 74.5038 63.3195 74.5038C62.8539 74.9695 62.8539 74.9695 62.3884 74.9695H54.939C54.4734 74.9695 54.0078 74.9695 54.0078 74.5038C53.5422 74.0382 53.5422 74.0382 53.5422 73.5725V54.9466L48.4208 64.2595C48.4208 64.7252 47.9552 64.7252 47.4896 65.1908C47.0241 65.6565 46.5585 65.6565 46.0929 65.6565H42.3682C41.9026 65.6565 41.437 65.6565 40.9715 65.1908C40.5059 64.7252 40.5059 64.7252 40.0403 64.2595L34.9189 54.9466V73.5725C34.9189 74.0382 34.9189 74.5038 34.4533 74.5038C33.9877 74.9695 33.9877 74.9695 33.5221 74.9695H26.5383C26.0727 74.9695 25.6072 74.9695 25.6072 74.5038C25.1416 74.0382 25.1416 74.0382 25.1416 73.5725V37.2519C25.1416 36.7863 25.1416 36.3206 25.6072 36.3206C26.0727 35.855 26.0727 35.855 26.5383 35.855H32.5909C33.5221 35.855 33.9877 35.855 34.4533 36.3206C34.9189 36.7863 34.9189 37.2519 35.3844 37.2519L44.2306 52.6183L53.5422 37.2519C53.5422 37.2519 54.0078 36.7863 54.4734 36.3206C54.939 35.855 55.4046 35.855 56.3358 35.855H62.8539C63.3195 35.855 63.7851 35.855 63.7851 36.3206C64.2507 36.7863 64.2507 36.7863 64.2507 37.2519V73.5725H63.7851ZM94.5137 140.626C94.5137 141.092 94.5137 141.557 94.0481 141.557C93.5825 142.023 93.5825 142.023 93.117 142.023H86.5988C86.1332 142.023 85.6676 142.023 85.6676 141.557C85.202 141.092 85.202 141.092 85.202 140.626V139.229C84.7364 139.695 84.7364 140.16 84.2708 140.626C83.8053 141.092 83.3397 141.557 82.8741 141.557C82.4085 142.023 81.4773 142.023 80.5462 142.489C79.615 142.489 78.6838 142.954 77.7527 142.954C74.028 142.954 71.2345 142.023 68.9065 139.695C66.5786 137.832 65.6475 134.573 65.6475 129.916V114.55C65.6475 114.084 65.6474 113.618 66.113 113.618C66.5786 113.153 66.5786 113.153 67.0442 113.153H74.028C74.4936 113.153 74.9591 113.153 74.9591 113.618C75.4247 114.084 75.4247 114.084 75.4247 114.55V128.519C75.4247 129.916 75.8903 131.313 76.3559 132.244C77.2871 133.176 78.2182 133.641 80.0806 133.641C81.9429 133.641 82.8741 133.176 83.8053 132.244C84.2708 131.313 84.7364 129.916 84.7364 128.519V114.55C84.7364 114.084 84.7364 113.618 85.202 113.618C85.6676 113.153 85.6676 113.153 86.1332 113.153H93.117C93.5825 113.153 94.0481 113.153 94.0481 113.618C94.5137 114.084 94.5137 114.084 94.5137 114.55V140.626ZM99.6351 73.5725C99.6351 74.0382 99.6351 74.5038 99.1695 74.5038C98.704 74.9695 98.704 74.9695 98.2384 74.9695H91.7202C91.2546 74.9695 90.789 74.9695 90.789 74.5038C90.3234 74.0382 90.3234 74.0382 90.3234 73.5725V72.1756C89.8579 72.6412 89.8579 73.1069 89.3923 73.5725C88.9267 74.0382 88.4611 74.5038 87.9955 74.5038C87.5299 74.9695 86.5988 74.9695 85.6676 75.4351C84.7364 75.9008 83.8053 75.9008 82.8741 75.9008C79.1494 75.9008 76.3559 74.9695 74.028 72.6412C71.7001 70.7786 70.7689 67.5191 70.7689 62.8626V47.4962C70.7689 47.0305 70.7689 46.5649 71.2345 46.5649C71.7001 46.0992 71.7001 46.0992 72.1656 46.0992H79.1494C79.615 46.0992 80.0806 46.0992 80.0806 46.5649C80.0806 47.0305 80.5462 47.0305 80.5462 47.4962V61.4656C80.5462 62.8626 81.0117 64.2595 81.4773 65.1908C82.4085 66.1221 83.3397 66.5878 85.202 66.5878C87.0643 66.5878 87.9955 66.1221 88.9267 65.1908C89.3923 64.2595 89.8579 62.8626 89.8579 61.4656V47.4962C89.8579 47.0305 89.8579 46.5649 90.3234 46.5649C90.789 46.0992 90.789 46.0992 91.2546 46.0992H98.2384C98.704 46.0992 99.1695 46.0992 99.1695 46.5649C99.6351 47.0305 99.6351 47.0305 99.6351 47.4962V73.5725V73.5725ZM110.809 140.626C110.809 141.092 110.809 141.557 110.344 141.557C109.878 142.023 109.878 142.023 109.412 142.023H102.429C101.963 142.023 101.497 142.023 101.497 141.557C101.032 141.092 101.032 141.092 101.032 140.626V103.84C101.032 103.374 101.032 102.908 101.497 102.908C101.497 102.443 101.963 102.443 102.429 102.443H109.412C109.878 102.443 110.344 102.443 110.344 102.908C110.809 103.374 110.809 103.374 110.809 103.84V140.626ZM108.016 74.9695C107.55 74.9695 107.084 74.9695 107.084 74.5038C106.619 74.0382 106.619 74.0382 106.619 73.5725V36.7863C106.619 36.3206 106.619 35.855 107.084 35.855C107.55 35.3893 107.55 35.3893 108.016 35.3893H114.999C115.465 35.3893 115.931 35.3893 115.931 35.855C116.396 35.855 116.396 36.3206 116.396 36.7863V73.5725C116.396 74.0382 116.396 74.5038 115.931 74.5038C115.465 74.9695 115.465 74.9695 114.999 74.9695H108.016ZM139.21 140.626C139.21 141.092 139.21 141.557 138.744 141.557C138.279 142.023 138.279 142.023 137.813 142.023H132.692C130.829 142.023 129.433 141.557 128.036 141.092C126.639 140.626 125.242 139.695 124.311 138.763C123.38 137.832 122.449 136.435 121.983 135.504C121.518 134.573 121.052 132.71 121.052 130.847V121.534H116.862C116.396 121.534 115.931 121.534 115.931 121.069C115.465 120.603 115.465 120.603 115.465 120.137V114.55C115.465 114.084 115.465 113.618 115.931 113.618C116.396 113.153 116.396 113.153 116.862 113.153H121.052V103.84C121.052 103.374 121.052 102.908 121.518 102.908C121.983 102.443 121.983 102.443 122.449 102.443H129.433C129.898 102.443 130.364 102.443 130.364 102.908C130.829 103.374 130.829 103.374 130.829 103.84V113.153H137.348C137.813 113.153 138.279 113.153 138.279 113.618C138.744 114.084 138.744 114.084 138.744 114.55V120.137C138.744 120.603 138.744 121.069 138.279 121.069C137.813 121.534 137.813 121.534 137.348 121.534H130.829V130.382C130.829 131.313 130.829 131.779 131.295 132.244C131.76 132.71 132.226 133.176 133.157 133.176H137.813C138.279 133.176 138.744 133.176 138.744 133.641C139.21 134.107 139.21 134.107 139.21 134.573V140.626ZM137.813 74.9695C135.951 74.9695 134.554 74.5038 133.157 74.0382C131.76 73.5725 130.364 72.6412 129.433 71.7099C128.501 70.7786 127.57 69.3817 127.105 68.4504C126.639 67.5191 126.173 65.6565 126.173 63.7939V54.4809H121.983C121.518 54.4809 121.052 54.4809 121.052 54.0153C120.586 53.5496 120.586 53.5496 120.586 53.084V47.4962C120.586 47.0305 120.586 46.5649 121.052 46.5649C121.518 46.0992 121.518 46.0992 121.983 46.0992H126.173V36.7863C126.173 36.3206 126.173 35.855 126.639 35.855C127.105 35.3893 127.105 35.3893 127.57 35.3893H134.554C135.02 35.3893 135.485 35.3893 135.485 35.855C135.951 36.3206 135.951 36.3206 135.951 36.7863V46.0992H142.469C142.935 46.0992 143.4 46.0992 143.4 46.5649C143.866 47.0305 143.866 47.0305 143.866 47.4962V53.084C143.866 53.5496 143.866 54.0153 143.4 54.0153C142.935 54.4809 142.935 54.4809 142.469 54.4809H135.951V63.3282C135.951 64.2595 135.951 64.7252 136.416 65.1908C136.882 65.6565 137.348 65.6565 138.279 65.6565H142.935C143.4 65.6565 143.866 65.6565 143.866 66.1221C144.331 66.5878 144.331 66.5878 144.331 67.0534V72.6412C144.331 73.1069 144.331 73.5725 143.866 73.5725C143.4 74.0382 143.4 74.0382 142.935 74.0382H137.813V74.9695ZM154.109 140.626C154.109 141.092 154.109 141.557 153.643 141.557C153.177 142.023 153.177 142.023 152.712 142.023H145.728C145.262 142.023 144.797 142.023 144.797 141.557C144.331 141.092 144.331 141.092 144.331 140.626V114.55C144.331 114.084 144.331 113.618 144.797 113.618C145.262 113.153 145.262 113.153 145.728 113.153H152.712C153.177 113.153 153.643 113.153 153.643 113.618C154.109 114.084 154.109 114.084 154.109 114.55V140.626ZM154.109 108.496C154.109 108.962 154.109 109.427 153.643 109.427C153.177 109.893 153.177 109.893 152.712 109.893H145.728C145.262 109.893 144.797 109.893 144.797 109.427C144.331 108.962 144.331 108.962 144.331 108.496V102.908C144.331 102.443 144.331 101.977 144.797 101.977C145.262 101.511 145.262 101.511 145.728 101.511H152.712C153.177 101.511 153.643 101.511 153.643 101.977C154.109 102.443 154.109 102.443 154.109 102.908V108.496ZM159.23 73.5725C159.23 74.0382 159.23 74.5038 158.764 74.5038C158.299 74.9695 158.299 74.9695 157.833 74.9695H150.849C150.384 74.9695 149.918 74.9695 149.918 74.5038C149.453 74.0382 149.453 74.0382 149.453 73.5725V47.4962C149.453 47.0305 149.453 46.5649 149.918 46.5649C150.384 46.0992 150.384 46.0992 150.849 46.0992H157.833C158.299 46.0992 158.764 46.0992 158.764 46.5649C159.23 47.0305 159.23 47.0305 159.23 47.4962V73.5725ZM159.23 41.4427C159.23 41.9084 159.23 42.374 158.764 42.374C158.299 42.8397 158.299 42.8397 157.833 42.8397H150.849C150.384 42.8397 149.918 42.8397 149.918 42.374C149.453 41.9084 149.453 41.9084 149.453 41.4427V35.855C149.453 35.3893 149.453 34.9237 149.918 34.9237C150.384 34.458 150.384 34.458 150.849 34.458H157.833C158.299 34.458 158.764 34.458 158.764 34.9237C159.23 35.3893 159.23 35.3893 159.23 35.855V41.4427V41.4427Z" fill="#BDBDBD"/>
</svg>
