<svg width="357" height="153" viewBox="0 0 357 153" fill="none" xmlns="http://www.w3.org/2000/svg">
<path d="M117.9 1.10001V10.9H130.1V151.5H140.5V10.9H152.5V1.10001H117.9Z" fill="#BDBDBD"/>
<path d="M155.8 132.5V1.10001H166.1V131.8C166.1 140.3 167.8 143.3 171.4 143.3C175 143.3 176.7 140.3 176.7 131.8V1.10001H187V131.4C187 148.1 180 152.6 171.4 152.6C162.8 152.7 155.8 148.2 155.8 132.5Z" fill="#BDBDBD"/>
<path d="M227.5 20.9V131.8C227.5 147 221.5 151.5 212.8 151.5H196.3V1.10001H212.8C221.5 1.10001 227.5 5.60001 227.5 20.9ZM217.2 23.1C217.2 13.5 215.5 10.5 211.2 10.5H206.7V142.1H211.2C215.5 142.1 217.2 139.1 217.2 129.5V23.1Z" fill="#BDBDBD"/>
<path d="M247.7 1.10001H237.4V151.5H247.7V1.10001Z" fill="#BDBDBD"/>
<path d="M257.6 132.5V21.2C257.6 4.5 264.7 0 273.4 0C282.1 0 288.8 4.5 288.8 20.1V131.4C288.8 148.1 281.7 152.6 273 152.6C264.4 152.7 257.6 148.2 257.6 132.5ZM278.5 131.8V20.9C278.5 12.4 276.8 9.4 273.2 9.4C269.6 9.4 267.9 12.4 267.9 20.9V131.8C267.9 140.3 269.6 143.3 273.2 143.3C276.8 143.3 278.5 140.3 278.5 131.8Z" fill="#BDBDBD"/>
<path d="M297.6 1.10001V151.5H319.9V141.8H307.9V1.10001H297.6Z" fill="#BDBDBD"/>
<path d="M84.5 1.10001L75.7 68.1H74L65.9 1.10001H62.2V2.60001V44L69.6 91.6V151.5H80V91.6L94.3 1.10001H84.5Z" fill="#BDBDBD"/>
<path d="M39.5 1.10001L28.6 109.4H27.6L16.7 1.10001H0V151.5H10.3L9 18.8H10.1L23.3 151.5H32.3L45.5 18.8H46.4L45.3 151.5H55.6V44V2.60001V1.10001H39.5Z" fill="#BDBDBD"/>
<path d="M346 131.8C346 140.3 344.3 143.3 340.7 143.3C337.1 143.3 335.4 140.3 335.4 131.8V20.9C335.4 12.4 337.1 9.4 340.7 9.4C344.3 9.4 346 12.4 346 20.9V131.8ZM340.9 0C332.3 0 325.1 4.5 325.1 21.2V132.5C325.1 148.1 331.9 152.6 340.5 152.6C349.1 152.6 356.3 148.1 356.3 131.4V20.1C356.3 4.5 349.6 0 340.9 0Z" fill="#BDBDBD"/>
<path d="M99.5 54.3C97.6 49.6 96.1 44.4 95.2 38.5L91.4 62.6C94.1 68.7 97.1 74.3 99.5 80.6C102.5 88.3 104.8 97.1 104.8 109.3V131.9C104.8 140.4 103.1 143.4 99.5 143.4C95.9 143.4 94.2 140.4 94.2 131.9V91.5H86.8V92V146.3C89.5 150.9 94 152.6 99.4 152.6C99.5 152.6 99.5 152.6 99.6 152.6C107.8 152.5 115.2 148 115.2 131.4V108.5C115.1 81.4 105.7 69.7 99.5 54.3Z" fill="#BDBDBD"/>
<path d="M104.5 21.9V49.2H114.8V21.2C114.8 6.60001 109 1.80001 101 1.20001L99.5 10.5C102.9 10.7 104.5 13.7 104.5 21.9Z" fill="#BDBDBD"/>
<path d="M91.4 62.4C91.4 62.4 91.4 62.5 91.5 62.5L95.3 38.4C95.3 38.4 95.3 38.4 95.3 38.3L91.4 62.4Z" fill="#BDBDBD"/>
<path d="M99.5 10.4C99.6 10.5 99.6 10.5 99.5 10.4L101 1.10001C101 1.10001 101 1.10001 100.9 1.10001L99.5 10.4Z" fill="#BDBDBD"/>
</svg>
