<svg width="499" height="95" viewBox="0 0 499 95" fill="none" xmlns="http://www.w3.org/2000/svg">
<path d="M115.255 31.3298C119.997 31.3298 123.841 27.4837 123.841 22.7394C123.841 17.995 119.997 14.1489 115.255 14.1489C110.513 14.1489 106.669 17.995 106.669 22.7394C106.669 27.4837 110.513 31.3298 115.255 31.3298Z" fill="#BDBDBD"/>
<path d="M383.038 31.3298C387.78 31.3298 391.624 27.4837 391.624 22.7394C391.624 17.995 387.78 14.1489 383.038 14.1489C378.296 14.1489 374.452 17.995 374.452 22.7394C374.452 27.4837 378.296 31.3298 383.038 31.3298Z" fill="#BDBDBD"/>
<path fill-rule="evenodd" clip-rule="evenodd" d="M7.349 21.1405H28.1137C31.4676 21.1405 34.6078 21.4942 37.5343 22.2015C40.4607 22.9088 43.0008 23.9615 45.1546 25.3597C47.3083 26.7579 49.0099 28.5015 50.2594 30.5906C51.5089 32.6796 52.1337 35.1223 52.1337 37.9187C52.1337 40.748 51.5172 43.2153 50.2841 45.3208C49.051 47.4263 47.4316 49.1781 45.4258 50.5763C43.4201 51.9745 41.1348 53.019 38.57 53.7099C36.0053 54.4008 33.3748 54.7462 30.6785 54.7462H22.0471V80.8511H7.349V21.1405ZM22.0471 49.3673H26.8313C28.4754 49.3673 29.9222 49.063 31.1717 48.4544C32.4212 47.8458 33.4569 47.0233 34.279 45.987C35.101 44.9507 35.7176 43.7582 36.1286 42.4093C36.5396 41.0605 36.7451 39.6459 36.7451 38.1654C36.7451 36.356 36.4738 34.7522 35.9313 33.354C35.3887 31.9558 34.6489 30.7797 33.7118 29.8257C32.7747 28.8716 31.6814 28.1479 30.4319 27.6544C29.1823 27.1609 27.8342 26.9142 26.3874 26.9142H22.0471V49.3673ZM86.763 50.0088C86.763 47.7059 86.3849 45.9459 85.6286 44.7286C84.8723 43.5114 83.8859 42.9028 82.6692 42.9028C82.1103 42.9028 81.4362 43.0262 80.647 43.2729C79.8579 43.5196 79.0112 43.8568 78.1069 44.2845C77.2027 44.7122 76.2902 45.2221 75.3695 45.8143C74.4489 46.4065 73.5939 47.0644 72.8048 47.7882V80.8511H58.9945V17.7355L72.8048 13.9358V39.3498C73.8241 38.5931 74.9339 37.9351 76.134 37.3759C77.3342 36.8166 78.559 36.3478 79.8086 35.9695C81.0581 35.5911 82.3158 35.3115 83.5817 35.1305C84.8477 34.9496 86.0889 34.8591 87.3055 34.8591C89.114 34.8591 90.8239 35.221 92.4351 35.9448C94.0463 36.6685 95.4437 37.6555 96.6275 38.9056C97.8112 40.1558 98.7483 41.6115 99.4388 43.2729C100.129 44.9343 100.475 46.719 100.475 48.6271V80.8511H86.763V50.0088ZM108.618 38.2641L122.231 34.5137V80.8511H108.618V38.2641ZM108.026 21.4366C108.026 20.5154 108.215 19.6519 108.593 18.8458C108.971 18.0398 109.489 17.3325 110.147 16.7239C110.804 16.1153 111.577 15.6383 112.465 15.2928C113.353 14.9474 114.306 14.7747 115.326 14.7747C116.345 14.7747 117.307 14.9474 118.211 15.2928C119.115 15.6383 119.896 16.1153 120.554 16.7239C121.211 17.3325 121.738 18.0398 122.132 18.8458C122.527 19.6519 122.724 20.5154 122.724 21.4366C122.724 22.3578 122.527 23.2213 122.132 24.0273C121.738 24.8334 121.211 25.5407 120.554 26.1493C119.896 26.7579 119.115 27.2349 118.211 27.5804C117.307 27.9258 116.345 28.0985 115.326 28.0985C114.306 28.0985 113.353 27.9258 112.465 27.5804C111.577 27.2349 110.804 26.7579 110.147 26.1493C109.489 25.5407 108.971 24.8334 108.593 24.0273C108.215 23.2213 108.026 22.3578 108.026 21.4366ZM144.431 80.8511H130.917V17.7355L144.431 13.9358V80.8511Z" fill="#BDBDBD"/>
<path fill-rule="evenodd" clip-rule="evenodd" d="M228.96 50.0088C228.96 47.7059 228.508 45.9459 227.604 44.7286C226.7 43.5114 225.639 42.9028 224.423 42.9028C223.831 42.9028 223.157 43.0179 222.4 43.2482C221.644 43.4785 220.847 43.8157 220.008 44.2598C219.17 44.704 218.315 45.2303 217.443 45.839C216.572 46.4476 215.725 47.1302 214.903 47.8869V80.8511H201.192V35.8461H214.903V39.3498C216.975 37.8035 219.219 36.6768 221.636 35.9695C224.053 35.2621 226.461 34.9085 228.862 34.9085C230.703 34.9085 232.454 35.2704 234.114 35.9941C235.775 36.7179 237.23 37.6966 238.479 38.9303C239.729 40.164 240.724 41.6115 241.463 43.2729C242.203 44.9343 242.573 46.719 242.573 48.6271V80.8511H228.96V50.0088Z" fill="#BDBDBD"/>
<path fill-rule="evenodd" clip-rule="evenodd" d="M354.055 50.2556C354.055 49.2686 353.932 48.3228 353.685 47.4181C353.438 46.5134 353.101 45.7321 352.674 45.0741C352.246 44.4161 351.737 43.8897 351.145 43.495C350.553 43.1002 349.912 42.9028 349.221 42.9028C348.432 42.9028 347.61 43.0344 346.755 43.2976C345.9 43.5608 345.062 43.9144 344.24 44.3585C343.418 44.8027 342.629 45.3208 341.872 45.913C341.116 46.5052 340.475 47.1302 339.949 47.7882V80.8511H326.385V50.2556C326.385 49.2686 326.254 48.3228 325.991 47.4181C325.727 46.5134 325.374 45.7321 324.93 45.0741C324.486 44.4161 323.968 43.8897 323.376 43.495C322.785 43.1002 322.176 42.9028 321.552 42.9028C320.828 42.9028 320.047 43.0344 319.209 43.2976C318.37 43.5608 317.54 43.9144 316.718 44.3585C315.896 44.8027 315.09 45.3208 314.301 45.913C313.512 46.5052 312.805 47.1302 312.18 47.7882V80.8511H298.567V35.8461H312.18V39.6952C314.35 38.2477 316.578 37.088 318.863 36.2162C321.149 35.3444 323.36 34.9085 325.497 34.9085C326.681 34.9085 327.873 35.0401 329.073 35.3033C330.273 35.5665 331.424 35.9448 332.526 36.4383C333.627 36.9317 334.638 37.5239 335.559 38.2148C336.48 38.9056 337.269 39.6952 337.927 40.5835C338.946 39.761 340.08 38.9961 341.33 38.2888C342.579 37.5815 343.886 36.9811 345.251 36.4876C346.616 35.9941 348.005 35.6076 349.419 35.3279C350.833 35.0483 352.23 34.9085 353.611 34.9085C355.518 34.9085 357.335 35.2786 359.061 36.0188C360.787 36.759 362.3 37.7789 363.599 39.0784C364.898 40.3778 365.925 41.8912 366.681 43.6183C367.438 45.3455 367.816 47.196 367.816 49.1699V80.8511H354.055V50.2556ZM376.206 38.2641L389.819 34.5137V80.8511H376.206V38.2641ZM375.614 21.4366C375.614 20.5154 375.803 19.6519 376.181 18.8458C376.559 18.0398 377.077 17.3325 377.735 16.7239C378.392 16.1153 379.165 15.6383 380.053 15.2928C380.941 14.9474 381.894 14.7747 382.914 14.7747C383.933 14.7747 384.895 14.9474 385.799 15.2928C386.703 15.6383 387.484 16.1153 388.142 16.7239C388.799 17.3325 389.325 18.0398 389.72 18.8458C390.115 19.6519 390.312 20.5154 390.312 21.4366C390.312 22.3578 390.115 23.2213 389.72 24.0273C389.325 24.8334 388.799 25.5407 388.142 26.1493C387.484 26.7579 386.703 27.2349 385.799 27.5804C384.895 27.9258 383.933 28.0985 382.914 28.0985C381.894 28.0985 380.941 27.9258 380.053 27.5804C379.165 27.2349 378.392 26.7579 377.735 26.1493C377.077 25.5407 376.559 24.8334 376.181 24.0273C375.803 23.2213 375.614 22.3578 375.614 21.4366ZM403.733 68.2674C404.555 70.7019 405.706 72.61 407.185 73.9918C408.665 75.3735 410.523 76.0644 412.759 76.0644C414.633 76.0644 416.162 75.612 417.346 74.7073C418.529 73.8026 419.121 72.7087 419.121 71.4257C419.121 70.3729 418.924 69.4271 418.529 68.5882C418.135 67.7493 417.576 66.9844 416.852 66.2935C416.129 65.6027 415.282 64.9776 414.312 64.4183C413.342 63.8591 412.298 63.3327 411.18 62.8392C409.405 62.0496 407.646 61.1943 405.903 60.2731C404.16 59.352 402.582 58.2992 401.168 57.1149C399.754 55.9305 398.611 54.5735 397.74 53.0437C396.869 51.5139 396.433 49.7457 396.433 47.7389C396.433 45.8307 396.828 44.0871 397.617 42.508C398.406 40.9289 399.516 39.5801 400.946 38.4615C402.376 37.343 404.094 36.4794 406.1 35.8708C408.106 35.2621 410.309 34.9578 412.709 34.9578C414.912 34.9578 416.861 35.1634 418.554 35.5747C420.247 35.9859 421.752 36.5698 423.067 37.3265C424.382 38.0832 425.533 39.0043 426.52 40.09C427.506 41.1756 428.394 42.4093 429.183 43.791L421.291 46.6039C420.864 45.1563 420.354 44.0296 419.762 43.2236C419.171 42.4175 418.554 41.8171 417.913 41.4224C417.272 41.0276 416.647 40.7891 416.039 40.7068C415.43 40.6246 414.88 40.5835 414.386 40.5835C413.564 40.5835 412.775 40.6739 412.019 40.8549C411.263 41.0358 410.588 41.3072 409.997 41.6691C409.405 42.031 408.936 42.4669 408.591 42.9768C408.246 43.4867 408.073 44.0871 408.073 44.778C408.073 45.6334 408.295 46.4394 408.739 47.196C409.183 47.9527 409.799 48.6682 410.588 49.3427C411.378 50.0171 412.307 50.6421 413.375 51.2179C414.444 51.7936 415.603 52.3446 416.852 52.871C418.76 53.6606 420.617 54.5406 422.426 55.5111C424.234 56.4816 425.846 57.5672 427.259 58.768C428.673 59.9688 429.8 61.3177 430.638 62.8145C431.476 64.3114 431.896 65.981 431.896 67.8233C431.896 69.7643 431.575 71.5902 430.934 73.3009C430.293 75.0116 429.249 76.5003 427.802 77.7669C426.355 79.0334 424.481 80.0286 422.179 80.7524C419.878 81.4762 417.066 81.838 413.745 81.838C410.95 81.838 408.574 81.5173 406.618 80.8758C404.662 80.2342 403.001 79.4118 401.636 78.4084C400.272 77.405 399.154 76.27 398.283 75.0034C397.411 73.7368 396.647 72.4784 395.989 71.2283L403.733 68.2674ZM433.972 41.3237V36.833C435.584 36.833 437.104 36.43 438.535 35.624C439.965 34.818 441.264 33.7159 442.431 32.3177C443.598 30.9195 444.601 29.2911 445.44 27.4323C446.278 25.5736 446.895 23.5915 447.289 21.4859H454.836V35.8461H465.933V41.3237H454.836V70.3894C454.836 71.3106 455.066 72.1001 455.526 72.7581C455.987 73.416 456.628 73.745 457.45 73.745C457.943 73.745 458.461 73.5888 459.003 73.2762C459.546 72.9637 460.072 72.5936 460.582 72.1659C461.091 71.7382 461.544 71.3105 461.938 70.8829C462.333 70.4552 462.612 70.1262 462.777 69.8959L467.512 73.597C466.755 74.7484 465.925 75.8258 465.021 76.8293C464.116 77.8327 463.073 78.7045 461.889 79.4447C460.705 80.1849 459.349 80.7688 457.82 81.1965C456.291 81.6242 454.523 81.838 452.518 81.838C450.643 81.838 448.991 81.5666 447.561 81.0238C446.13 80.481 444.947 79.7243 444.009 78.7538C443.072 77.7833 442.365 76.6236 441.889 75.2748C441.412 73.926 441.173 72.4291 441.173 70.7842V41.3237H433.972Z" fill="#BDBDBD"/>
<path d="M480.919 81.8617C485.661 81.8617 489.505 78.0156 489.505 73.2713C489.505 68.5269 485.661 64.6808 480.919 64.6808C476.177 64.6808 472.333 68.5269 472.333 73.2713C472.333 78.0156 476.177 81.8617 480.919 81.8617Z" fill="#BDBDBD"/>
<path fill-rule="evenodd" clip-rule="evenodd" d="M172.595 81.8627C165.665 81.8627 160.158 79.7653 156.073 75.5704C151.988 71.3755 149.946 65.7307 149.946 58.6358C149.946 51.4599 152.002 45.7949 156.114 41.6405C160.225 37.486 165.813 35.4089 172.878 35.4089C179.969 35.4089 185.57 37.486 189.682 41.6405C193.794 45.7949 195.85 51.433 195.85 58.5548C195.85 65.8386 193.787 71.5441 189.662 75.6715C185.537 79.799 179.848 81.8627 172.595 81.8627ZM172.797 74.3767C179.672 74.3767 183.11 69.1028 183.11 58.5548C183.11 53.726 182.2 49.9088 180.38 47.1032C178.56 44.2977 176.059 42.8949 172.878 42.8949C169.723 42.8949 167.236 44.2977 165.416 47.1032C163.596 49.9088 162.686 53.753 162.686 58.6358C162.686 63.4646 163.589 67.2953 165.396 70.1278C167.202 72.9604 169.669 74.3767 172.797 74.3767Z" fill="#BDBDBD"/>
<path fill-rule="evenodd" clip-rule="evenodd" d="M269.97 81.8627C263.041 81.8627 257.534 79.7653 253.449 75.5704C249.364 71.3755 247.321 65.7307 247.321 58.6358C247.321 51.4599 249.377 45.7949 253.489 41.6405C257.601 37.486 263.189 35.4089 270.253 35.4089C277.345 35.4089 282.946 37.486 287.058 41.6405C291.17 45.7949 293.226 51.433 293.226 58.5548C293.226 65.8386 291.163 71.5441 287.038 75.6715C282.912 79.799 277.223 81.8627 269.97 81.8627ZM270.173 74.3767C277.048 74.3767 280.486 69.1028 280.486 58.5548C280.486 53.726 279.576 49.9088 277.756 47.1032C275.936 44.2977 273.435 42.8949 270.253 42.8949C267.099 42.8949 264.611 44.2977 262.791 47.1032C260.971 49.9088 260.061 53.753 260.061 58.6358C260.061 63.4646 260.965 67.2953 262.771 70.1278C264.578 72.9604 267.045 74.3767 270.173 74.3767Z" fill="#BDBDBD"/>
</svg>
