<svg width="560" height="116" viewBox="0 0 560 116" fill="none" xmlns="http://www.w3.org/2000/svg">
<path d="M23.914 37.392C27.562 37.392 30.986 37.936 34.186 39.024C37.386 40.112 40.202 41.648 42.634 43.632L37.066 52.176C32.906 49.552 28.714 48.24 24.49 48.24C22.506 48.24 20.97 48.592 19.882 49.296C18.858 49.936 18.346 50.864 18.346 52.08C18.346 53.04 18.57 53.84 19.018 54.48C19.53 55.056 20.522 55.664 21.994 56.304C23.466 56.944 25.738 57.712 28.81 58.608C34.122 60.144 38.058 62.16 40.618 64.656C43.242 67.088 44.554 70.48 44.554 74.832C44.554 78.288 43.562 81.296 41.578 83.856C39.594 86.352 36.874 88.272 33.418 89.616C29.962 90.96 26.122 91.632 21.898 91.632C17.61 91.632 13.61 90.96 9.89801 89.616C6.25001 88.272 3.14601 86.416 0.58601 84.048L7.97801 75.792C12.266 79.12 16.778 80.784 21.514 80.784C23.818 80.784 25.61 80.368 26.89 79.536C28.234 78.704 28.906 77.52 28.906 75.984C28.906 74.768 28.65 73.808 28.138 73.104C27.626 72.4 26.634 71.76 25.162 71.184C23.69 70.544 21.354 69.776 18.154 68.88C13.098 67.408 9.32201 65.36 6.82601 62.736C4.33001 60.112 3.08201 56.848 3.08201 52.944C3.08201 50 3.91401 47.376 5.57801 45.072C7.30601 42.704 9.73801 40.848 12.874 39.504C16.074 38.096 19.754 37.392 23.914 37.392ZM95.3763 90H82.2243L81.5523 83.568C77.8403 88.944 72.6883 91.632 66.0963 91.632C61.4243 91.632 57.8723 90.224 55.4403 87.408C53.0723 84.592 51.8883 80.656 51.8883 75.6V39.024H67.0563V73.68C67.0563 76.176 67.4403 77.936 68.2083 78.96C69.0403 79.92 70.2883 80.4 71.9523 80.4C75.1523 80.4 77.9043 78.416 80.2083 74.448V39.024H95.3763V90ZM136.106 37.392C142.506 37.392 147.274 39.76 150.41 44.496C153.546 49.232 155.114 55.856 155.114 64.368C155.114 69.616 154.282 74.32 152.618 78.48C151.018 82.576 148.682 85.808 145.61 88.176C142.538 90.48 138.954 91.632 134.858 91.632C129.738 91.632 125.61 89.872 122.474 86.352V109.68L107.306 111.312V39.024H120.65L121.418 44.688C123.402 42.192 125.674 40.368 128.234 39.216C130.794 38 133.418 37.392 136.106 37.392ZM130.25 80.496C136.33 80.496 139.37 75.184 139.37 64.56C139.37 58.544 138.698 54.384 137.354 52.08C136.01 49.712 133.994 48.528 131.306 48.528C129.578 48.528 127.946 49.04 126.41 50.064C124.938 51.088 123.626 52.56 122.474 54.48V75.984C124.522 78.992 127.114 80.496 130.25 80.496ZM209.035 63.504C209.035 65.616 208.939 67.44 208.747 68.976H177.163C177.675 73.264 178.891 76.272 180.811 78C182.731 79.728 185.387 80.592 188.779 80.592C190.827 80.592 192.811 80.24 194.731 79.536C196.651 78.768 198.731 77.616 200.971 76.08L207.211 84.528C201.259 89.264 194.635 91.632 187.339 91.632C179.083 91.632 172.747 89.2 168.331 84.336C163.915 79.472 161.707 72.944 161.707 64.752C161.707 59.568 162.635 54.928 164.491 50.832C166.347 46.672 169.067 43.408 172.651 41.04C176.235 38.608 180.523 37.392 185.515 37.392C192.875 37.392 198.635 39.696 202.795 44.304C206.955 48.912 209.035 55.312 209.035 63.504ZM194.155 59.184C194.027 51.376 191.275 47.472 185.899 47.472C183.275 47.472 181.227 48.432 179.755 50.352C178.347 52.272 177.483 55.44 177.163 59.856H194.155V59.184ZM245.204 37.584C247.06 37.584 248.756 37.808 250.292 38.256L247.892 52.944C245.972 52.496 244.436 52.272 243.284 52.272C240.276 52.272 237.972 53.328 236.372 55.44C234.836 57.488 233.62 60.592 232.724 64.752V90H217.556V39.024H230.804L232.052 48.912C233.204 45.392 234.932 42.64 237.236 40.656C239.604 38.608 242.26 37.584 245.204 37.584ZM275.191 56.4C275.191 61.776 275.735 66.576 276.823 70.8C277.975 75.024 279.831 79.216 282.391 83.376C285.015 87.472 288.663 92.08 293.335 97.2L284.599 105.168C276.471 98.192 270.295 90.832 266.071 83.088C261.911 75.28 259.831 66.384 259.831 56.4C259.831 46.416 261.911 37.552 266.071 29.808C270.295 22 276.471 14.608 284.599 7.632L293.335 15.6C286.807 22.768 282.135 29.424 279.319 35.568C276.567 41.648 275.191 48.592 275.191 56.4ZM534.972 56.4C534.972 48.592 533.564 41.648 530.748 35.568C527.996 29.424 523.356 22.768 516.828 15.6L525.564 7.632C533.692 14.608 539.836 22 543.996 29.808C548.22 37.552 550.332 46.416 550.332 56.4C550.332 66.384 548.22 75.28 543.996 83.088C539.836 90.832 533.692 98.192 525.564 105.168L516.828 97.2C521.5 92.08 525.116 87.472 527.676 83.376C530.3 79.216 532.156 75.024 533.244 70.8C534.396 66.576 534.972 61.776 534.972 56.4Z" fill="#BDBDBD"/>
<path d="M326.987 79.632C328.907 79.632 330.763 79.28 332.555 78.576C334.347 77.808 336.267 76.72 338.315 75.312L345.035 84.912C342.603 86.96 339.787 88.592 336.587 89.808C333.387 91.024 329.899 91.632 326.123 91.632C320.683 91.632 315.979 90.512 312.011 88.272C308.107 86.032 305.099 82.896 302.987 78.864C300.875 74.832 299.819 70.16 299.819 64.848C299.819 59.536 300.907 54.8 303.083 50.64C305.259 46.48 308.331 43.216 312.299 40.848C316.331 38.48 321.035 37.296 326.411 37.296C330.187 37.296 333.579 37.84 336.587 38.928C339.595 39.952 342.411 41.552 345.035 43.728L338.507 52.848C334.795 50.288 330.987 49.008 327.083 49.008C319.467 49.008 315.659 54.288 315.659 64.848C315.659 70.16 316.651 73.968 318.635 76.272C320.619 78.512 323.403 79.632 326.987 79.632ZM372.837 37.296C380.582 37.296 386.63 39.76 390.982 44.688C395.398 49.552 397.606 56.112 397.606 64.368C397.606 72.944 395.43 79.632 391.077 84.432C386.726 89.232 380.646 91.632 372.837 91.632C365.029 91.632 358.949 89.264 354.597 84.528C350.245 79.728 348.069 73.04 348.069 64.464C348.069 59.024 349.029 54.288 350.949 50.256C352.933 46.16 355.781 42.992 359.493 40.752C363.269 38.448 367.717 37.296 372.837 37.296ZM372.837 48.528C369.701 48.528 367.398 49.808 365.925 52.368C364.453 54.864 363.717 58.896 363.717 64.464C363.717 70.096 364.453 74.192 365.925 76.752C367.398 79.248 369.701 80.496 372.837 80.496C375.973 80.496 378.277 79.216 379.749 76.656C381.221 74.096 381.957 70 381.957 64.368C381.957 58.864 381.221 54.864 379.749 52.368C378.277 49.808 375.973 48.528 372.837 48.528ZM452.48 18.768V90H439.04L438.272 84.432C436.736 86.608 434.784 88.368 432.416 89.712C430.048 90.992 427.296 91.632 424.16 91.632C418.016 91.632 413.344 89.2 410.144 84.336C407.008 79.472 405.44 72.816 405.44 64.368C405.44 59.12 406.272 54.448 407.936 50.352C409.6 46.256 411.968 43.056 415.04 40.752C418.112 38.448 421.696 37.296 425.792 37.296C430.4 37.296 434.24 38.896 437.312 42.096V17.136L452.48 18.768ZM429.824 48.432C427.072 48.432 424.928 49.744 423.392 52.368C421.856 54.928 421.088 58.96 421.088 64.464C421.088 70.352 421.76 74.512 423.104 76.944C424.512 79.312 426.464 80.496 428.96 80.496C432.16 80.496 434.944 78.544 437.312 74.64V52.656C436.224 51.248 435.072 50.192 433.856 49.488C432.704 48.784 431.36 48.432 429.824 48.432ZM477.114 68.976C478.074 76.72 482.17 80.592 489.402 80.592C493.754 80.592 498.106 79.184 502.458 76.368L508.506 84.624C506.01 86.8 503.034 88.528 499.578 89.808C496.122 91.024 492.314 91.632 488.154 91.632C482.458 91.632 477.626 90.512 473.658 88.272C469.69 85.968 466.682 82.8 464.634 78.768C462.65 74.672 461.658 69.936 461.658 64.56C461.658 59.44 462.618 54.832 464.538 50.736C466.522 46.576 469.37 43.312 473.082 40.944C476.858 38.512 481.338 37.296 486.522 37.296C491.386 37.296 495.61 38.352 499.194 40.464C502.778 42.512 505.53 45.52 507.45 49.488C509.434 53.392 510.426 58.064 510.426 63.504C510.426 65.616 510.33 67.44 510.138 68.976H477.114ZM486.522 47.472C483.77 47.472 481.562 48.496 479.898 50.544C478.234 52.528 477.242 55.6 476.922 59.76H495.642C495.514 51.568 492.474 47.472 486.522 47.472Z" fill="#BDBDBD"/>
</svg>
